<?xml version="1.0" standalone="no"?><!DOCTYPE svg PUBLIC "-//W3C//DTD SVG 1.1//EN" "http://www.w3.org/Graphics/SVG/1.1/DTD/svg11.dtd"><svg height="600" node-id="1" sillyvg="true" template-height="600" template-width="600" version="1.1" viewBox="0 0 600 600" width="600" xmlns="http://www.w3.org/2000/svg" xmlns:xlink="http://www.w3.org/1999/xlink"><defs node-id="46"><linearGradient gradientUnits="userSpaceOnUse" id="SVGID_1_" node-id="9" spreadMethod="pad" x1="429.9589" x2="553.9333" y1="239.411" y2="239.411"><stop offset="0.1152" stop-color="#53ffff" stop-opacity="0"></stop><stop offset="0.7478" stop-color="#53ffff" stop-opacity="0.5"></stop><stop offset="1" stop-color="#00ffff"></stop></linearGradient><linearGradient gradientUnits="userSpaceOnUse" id="SVGID_2_" node-id="14" spreadMethod="pad" x1="46.0511" x2="170.0414" y1="337.6628" y2="337.6628"><stop offset="0.1152" stop-color="#53ffff" stop-opacity="0"></stop><stop offset="0.7478" stop-color="#53ffff" stop-opacity="0.5"></stop><stop offset="1" stop-color="#00ffff"></stop></linearGradient><linearGradient gradientTransform="matrix(0.7216 -0.6923 0.6923 0.7216 3387.1929 456.0251)" gradientUnits="userSpaceOnUse" id="SVGID_3_" node-id="20" spreadMethod="pad" x1="-2266.6184" x2="-1954.8636" y1="-2283.5527" y2="-2283.5527"><stop offset="0.1152" stop-color="#53ffff" stop-opacity="0"></stop><stop offset="0.7478" stop-color="#53ffff" stop-opacity="0.5"></stop><stop offset="1" stop-color="#00ffff"></stop></linearGradient><linearGradient gradientTransform="matrix(0.7216 -0.6923 0.6923 0.7216 3387.1929 456.0251)" gradientUnits="userSpaceOnUse" id="SVGID_4_" node-id="25" spreadMethod="pad" x1="-2268.8472" x2="-2009.8293" y1="-2183.276" y2="-2183.276"><stop offset="0.1152" stop-color="#53ffff" stop-opacity="0"></stop><stop offset="0.7478" stop-color="#53ffff" stop-opacity="0.5"></stop><stop offset="1" stop-color="#00ffff"></stop></linearGradient><linearGradient gradientTransform="matrix(0.7216 -0.6923 0.6923 0.7216 3387.1929 456.0251)" gradientUnits="userSpaceOnUse" id="SVGID_5_" node-id="30" spreadMethod="pad" x1="-2594.4734" x2="-1629.2606" y1="-2258.0593" y2="-2258.0593"><stop offset="0.1152" stop-color="#53ffff" stop-opacity="0"></stop><stop offset="0.7478" stop-color="#53ffff" stop-opacity="0.5"></stop><stop offset="1" stop-color="#00ffff"></stop></linearGradient><linearGradient gradientTransform="matrix(0.7216 -0.6923 0.6923 0.7216 3387.1929 456.0251)" gradientUnits="userSpaceOnUse" id="SVGID_6_" node-id="35" spreadMethod="pad" x1="-2213.201" x2="-2151.2769" y1="-2299.2065" y2="-2299.2065"><stop offset="0.1152" stop-color="#53ffff" stop-opacity="0"></stop><stop offset="0.7478" stop-color="#53ffff" stop-opacity="0.5"></stop><stop offset="1" stop-color="#00ffff"></stop></linearGradient><linearGradient gradientTransform="matrix(0.7216 -0.6923 0.6923 0.7216 3387.1929 456.0251)" gradientUnits="userSpaceOnUse" id="SVGID_7_" node-id="40" spreadMethod="pad" x1="-2068.6934" x2="-2023.6863" y1="-2265.4683" y2="-2265.4683"><stop offset="0.1152" stop-color="#53ffff" stop-opacity="0"></stop><stop offset="0.7478" stop-color="#53ffff" stop-opacity="0.5"></stop><stop offset="1" stop-color="#00ffff"></stop></linearGradient></defs><path d="M 519.70 177.80 C 495.20 175.80 461.80 178.20 423.00 184.60 C 421.40 184.90 419.80 185.10 418.20 185.40 C 422.40 190.20 426.30 195.20 429.90 200.50 C 465.50 194.80 496.00 192.80 518.30 194.60 C 529.50 195.50 538.30 197.30 544.60 200.00 C 548.00 201.50 552.40 204.00 553.50 207.50 C 555.00 212.20 551.00 220.10 542.40 229.10 C 532.20 239.80 515.50 252.10 494.20 264.70 C 482.80 271.50 470.30 278.20 456.80 284.90 C 416.80 304.80 368.40 324.10 316.50 340.70 C 264.60 357.30 214.00 369.60 169.90 376.60 C 155.10 379.00 140.90 380.70 127.70 381.80 C 103.00 383.90 82.30 383.50 67.80 380.70 C 55.60 378.40 47.70 374.30 46.20 369.60 C 44.30 363.70 51.00 353.10 64.20 341.40 C 79.60 327.70 103.70 312.30 133.80 296.70 C 136.80 295.20 139.80 293.60 142.90 292.10 C 142.70 285.70 143.00 279.30 143.60 273.00 C 137.60 275.90 131.80 278.80 126.10 281.70 C 94.70 297.90 69.40 314.20 53.00 328.80 C 33.60 346.00 25.90 361.50 30.20 374.70 C 36.80 395.50 70.10 403.50 129.20 398.60 C 145.40 397.20 163.00 394.90 181.60 391.70 C 224.40 384.40 272.50 372.40 321.70 356.70 C 370.80 341.00 417.00 322.80 456.10 304.00 C 473.10 295.80 488.80 287.50 502.80 279.20 C 553.70 249.00 576.20 223.10 569.60 202.30 C 565.20 188.30 548.40 180.10 519.70 177.80 Z" fill="#0046d3" fill-rule="nonzero" node-id="107" stroke="none" target-height="227.7" target-width="550.3" target-x="25.9" target-y="175.8"></path><g node-id="133"><path d="M 252.20 139.00 C 190.70 158.70 149.80 212.70 143.80 273.00 C 143.20 279.30 142.90 285.70 143.10 292.10 C 143.40 306.70 145.90 321.60 150.50 336.20 C 155.20 350.90 161.80 364.40 170.10 376.50 C 214.30 369.50 264.90 357.10 316.70 340.60 C 368.60 324.00 416.90 304.70 457.00 284.80 C 456.70 270.10 454.20 255.30 449.60 240.60 C 444.90 225.90 438.30 212.40 430.10 200.30 C 426.50 195.00 422.60 189.90 418.40 185.20 C 378.40 139.60 313.70 119.40 252.20 139.00 Z" fill="#0066d6" fill-rule="nonzero" group-id="1" node-id="111" stroke="none" target-height="257.1" target-width="314.1" target-x="142.9" target-y="119.4"></path><path d="M 181.70 391.80 C 221.60 437.50 286.30 457.70 347.80 438.10 C 409.30 418.40 450.20 364.50 456.20 304.10 C 417.10 323.00 370.90 341.10 321.80 356.80 C 272.70 372.40 224.50 384.40 181.70 391.80 Z" fill="#0066d6" fill-rule="nonzero" group-id="1" node-id="113" stroke="none" target-height="153.6" target-width="274.5" target-x="181.7" target-y="304.1"></path></g><path d="M 457.00 284.90 C 470.50 278.20 483.00 271.40 494.40 264.70 C 515.70 252.10 532.40 239.70 542.60 229.10 C 551.20 220.10 555.30 212.20 553.70 207.50 C 552.60 204.00 548.20 201.50 544.80 200.00 C 538.50 197.30 529.60 195.50 518.50 194.60 C 496.20 192.80 465.70 194.90 430.10 200.50 C 438.30 212.60 445.00 226.10 449.60 240.80 C 454.20 255.40 456.60 270.30 457.00 284.90 Z" fill="url(#SVGID_1_)" fill-rule="nonzero" node-id="116" stroke="none" target-height="92.09999" target-width="125.19998" target-x="430.1" target-y="192.8"></path><path d="M 143.00 292.20 C 139.90 293.70 136.90 295.30 133.90 296.80 C 103.70 312.40 79.70 327.80 64.30 341.50 C 51.10 353.20 44.40 363.70 46.30 369.70 C 47.80 374.40 55.70 378.50 67.90 380.80 C 82.40 383.60 103.10 383.90 127.80 381.90 C 141.00 380.80 155.10 379.00 170.00 376.70 C 161.80 364.60 155.10 351.10 150.40 336.40 C 145.80 321.70 143.40 306.80 143.00 292.20 Z" fill="url(#SVGID_2_)" fill-rule="nonzero" node-id="118" stroke="none" target-height="91.69998" target-width="125.6" target-x="44.4" target-y="292.2"></path><path d="M 252.20 139.00 C 190.70 158.70 149.80 212.70 143.80 273.00 C 143.20 279.30 142.90 285.70 143.10 292.10 C 143.40 306.70 145.90 321.60 150.50 336.20 C 155.20 350.90 161.80 364.40 170.10 376.50 C 214.30 369.50 264.90 357.10 316.70 340.60 C 368.60 324.00 416.90 304.70 457.00 284.80 C 456.70 270.10 454.20 255.30 449.60 240.60 C 444.90 225.90 438.30 212.40 430.10 200.30 C 426.50 195.00 422.60 189.90 418.40 185.20 C 378.40 139.60 313.70 119.40 252.20 139.00 Z" fill="url(#SVGID_3_)" fill-rule="nonzero" group-id="2" node-id="122" stroke="none" target-height="257.1" target-width="314.1" target-x="142.9" target-y="119.4"></path><path d="M 181.70 391.80 C 221.60 437.50 286.30 457.70 347.80 438.10 C 409.30 418.40 450.20 364.50 456.20 304.10 C 417.10 323.00 370.90 341.10 321.80 356.80 C 272.70 372.40 224.50 384.40 181.70 391.80 Z" fill="url(#SVGID_4_)" fill-rule="nonzero" group-id="2" node-id="124" stroke="none" target-height="153.6" target-width="274.5" target-x="181.7" target-y="304.1"></path><path d="M 519.70 177.80 C 495.20 175.80 461.80 178.20 423.00 184.60 C 421.40 184.90 419.80 185.10 418.20 185.40 C 422.40 190.20 426.30 195.20 429.90 200.50 C 465.50 194.80 496.00 192.80 518.30 194.60 C 529.50 195.50 538.30 197.30 544.60 200.00 C 548.00 201.50 552.40 204.00 553.50 207.50 C 555.00 212.20 551.00 220.10 542.40 229.10 C 532.20 239.80 515.50 252.10 494.20 264.70 C 482.80 271.50 470.30 278.20 456.80 284.90 C 416.80 304.80 368.40 324.10 316.50 340.70 C 264.60 357.30 214.00 369.60 169.90 376.60 C 155.10 379.00 140.90 380.70 127.70 381.80 C 103.00 383.90 82.30 383.50 67.80 380.70 C 55.60 378.40 47.70 374.30 46.20 369.60 C 44.30 363.70 51.00 353.10 64.20 341.40 C 79.60 327.70 103.70 312.30 133.80 296.70 C 136.80 295.20 139.80 293.60 142.90 292.10 C 142.70 285.70 143.00 279.30 143.60 273.00 C 137.60 275.90 131.80 278.80 126.10 281.70 C 94.70 297.90 69.40 314.20 53.00 328.80 C 33.60 346.00 25.90 361.50 30.20 374.70 C 36.80 395.50 70.10 403.50 129.20 398.60 C 145.40 397.20 163.00 394.90 181.60 391.70 C 224.40 384.40 272.50 372.40 321.70 356.70 C 370.80 341.00 417.00 322.80 456.10 304.00 C 473.10 295.80 488.80 287.50 502.80 279.20 C 553.70 249.00 576.20 223.10 569.60 202.30 C 565.20 188.30 548.40 180.10 519.70 177.80 Z" fill="url(#SVGID_5_)" fill-rule="nonzero" node-id="127" stroke="none" target-height="227.7" target-width="550.3" target-x="25.9" target-y="175.8"></path><path d="M 251.70 307.60 C 251.70 324.72 237.82 338.60 220.70 338.60 C 203.58 338.60 189.70 324.72 189.70 307.60 C 189.70 290.48 203.58 276.60 220.70 276.60 C 237.82 276.60 251.70 290.48 251.70 307.60 Z" fill="url(#SVGID_6_)" fill-rule="nonzero" node-id="129" stroke="none" target-height="62" target-width="62" target-x="189.7" target-y="276.6"></path><path d="M 364.80 237.70 C 364.80 250.13 354.73 260.20 342.30 260.20 C 329.87 260.20 319.80 250.13 319.80 237.70 C 319.80 225.27 329.87 215.20 342.30 215.20 C 354.73 215.20 364.80 225.27 364.80 237.70 Z" fill="url(#SVGID_7_)" fill-rule="nonzero" node-id="131" stroke="none" target-height="45.000015" target-width="45" target-x="319.8" target-y="215.2"></path></svg>